<mxfile host="app.diagrams.net" modified="2023-04-10T09:25:21.652Z" agent="Mozilla/5.0 (Macintosh; Intel Mac OS X 10_15_7) AppleWebKit/537.36 (KHTML, like Gecko) Chrome/111.0.0.0 Safari/537.36" etag="5Gw_BdAuOMga2N1Hij1S" version="21.1.5" type="device">
  <diagram name="ページ1" id="MKNvnPIcQKEw9XKGdOnA">
    <mxGraphModel dx="1811" dy="548" grid="1" gridSize="10" guides="1" tooltips="1" connect="1" arrows="1" fold="1" page="1" pageScale="1" pageWidth="827" pageHeight="1169" math="0" shadow="0">
      <root>
        <mxCell id="0" />
        <mxCell id="1" parent="0" />
        <mxCell id="Ll7TEgQNnreRBFit79Cj-6" style="edgeStyle=orthogonalEdgeStyle;rounded=0;orthogonalLoop=1;jettySize=auto;html=1;exitX=0.25;exitY=1;exitDx=0;exitDy=0;" edge="1" parent="1" source="Ll7TEgQNnreRBFit79Cj-1">
          <mxGeometry relative="1" as="geometry">
            <mxPoint x="85" y="210" as="targetPoint" />
          </mxGeometry>
        </mxCell>
        <mxCell id="Ll7TEgQNnreRBFit79Cj-12" value="サインアップをクリック" style="edgeLabel;html=1;align=center;verticalAlign=middle;resizable=0;points=[];" vertex="1" connectable="0" parent="Ll7TEgQNnreRBFit79Cj-6">
          <mxGeometry x="0.1091" y="1" relative="1" as="geometry">
            <mxPoint as="offset" />
          </mxGeometry>
        </mxCell>
        <mxCell id="Ll7TEgQNnreRBFit79Cj-15" value="ログイン" style="edgeStyle=orthogonalEdgeStyle;rounded=0;orthogonalLoop=1;jettySize=auto;html=1;exitX=1;exitY=0.5;exitDx=0;exitDy=0;entryX=0;entryY=0.5;entryDx=0;entryDy=0;" edge="1" parent="1" source="Ll7TEgQNnreRBFit79Cj-1" target="Ll7TEgQNnreRBFit79Cj-14">
          <mxGeometry relative="1" as="geometry" />
        </mxCell>
        <mxCell id="Ll7TEgQNnreRBFit79Cj-1" value="トップページ" style="rounded=0;whiteSpace=wrap;html=1;" vertex="1" parent="1">
          <mxGeometry x="40" y="40" width="180" height="60" as="geometry" />
        </mxCell>
        <mxCell id="Ll7TEgQNnreRBFit79Cj-7" value="サインアップ画面" style="rounded=0;whiteSpace=wrap;html=1;" vertex="1" parent="1">
          <mxGeometry x="30" y="210" width="120" height="60" as="geometry" />
        </mxCell>
        <mxCell id="Ll7TEgQNnreRBFit79Cj-16" style="edgeStyle=orthogonalEdgeStyle;rounded=0;orthogonalLoop=1;jettySize=auto;html=1;" edge="1" parent="1" source="Ll7TEgQNnreRBFit79Cj-14">
          <mxGeometry relative="1" as="geometry">
            <mxPoint x="420" y="200" as="targetPoint" />
          </mxGeometry>
        </mxCell>
        <mxCell id="Ll7TEgQNnreRBFit79Cj-22" value="投稿をクリック" style="edgeLabel;html=1;align=center;verticalAlign=middle;resizable=0;points=[];" vertex="1" connectable="0" parent="Ll7TEgQNnreRBFit79Cj-16">
          <mxGeometry x="-0.04" y="1" relative="1" as="geometry">
            <mxPoint as="offset" />
          </mxGeometry>
        </mxCell>
        <mxCell id="Ll7TEgQNnreRBFit79Cj-19" value="ログアウト" style="edgeStyle=orthogonalEdgeStyle;rounded=0;orthogonalLoop=1;jettySize=auto;html=1;exitX=0;exitY=0.25;exitDx=0;exitDy=0;entryX=1;entryY=0.25;entryDx=0;entryDy=0;" edge="1" parent="1" source="Ll7TEgQNnreRBFit79Cj-14" target="Ll7TEgQNnreRBFit79Cj-1">
          <mxGeometry relative="1" as="geometry" />
        </mxCell>
        <mxCell id="Ll7TEgQNnreRBFit79Cj-32" style="edgeStyle=orthogonalEdgeStyle;rounded=0;orthogonalLoop=1;jettySize=auto;html=1;exitX=1;exitY=0.25;exitDx=0;exitDy=0;" edge="1" parent="1" source="Ll7TEgQNnreRBFit79Cj-14">
          <mxGeometry relative="1" as="geometry">
            <mxPoint x="600" y="55" as="targetPoint" />
          </mxGeometry>
        </mxCell>
        <mxCell id="Ll7TEgQNnreRBFit79Cj-36" value="新規作成を&lt;br&gt;クリック" style="edgeLabel;html=1;align=center;verticalAlign=middle;resizable=0;points=[];" vertex="1" connectable="0" parent="Ll7TEgQNnreRBFit79Cj-32">
          <mxGeometry x="-0.0167" y="1" relative="1" as="geometry">
            <mxPoint as="offset" />
          </mxGeometry>
        </mxCell>
        <mxCell id="Ll7TEgQNnreRBFit79Cj-14" value="投稿一覧画面" style="rounded=0;whiteSpace=wrap;html=1;" vertex="1" parent="1">
          <mxGeometry x="360" y="40" width="120" height="60" as="geometry" />
        </mxCell>
        <mxCell id="Ll7TEgQNnreRBFit79Cj-20" value="ユーザー名をクリック" style="edgeStyle=orthogonalEdgeStyle;rounded=0;orthogonalLoop=1;jettySize=auto;html=1;" edge="1" parent="1" source="Ll7TEgQNnreRBFit79Cj-18">
          <mxGeometry relative="1" as="geometry">
            <mxPoint x="414" y="350" as="targetPoint" />
          </mxGeometry>
        </mxCell>
        <mxCell id="Ll7TEgQNnreRBFit79Cj-18" value="投稿詳細画面" style="rounded=0;whiteSpace=wrap;html=1;" vertex="1" parent="1">
          <mxGeometry x="354" y="200" width="120" height="60" as="geometry" />
        </mxCell>
        <mxCell id="Ll7TEgQNnreRBFit79Cj-21" value="ユーザー詳細ページ" style="rounded=0;whiteSpace=wrap;html=1;" vertex="1" parent="1">
          <mxGeometry x="354" y="350" width="120" height="60" as="geometry" />
        </mxCell>
        <mxCell id="Ll7TEgQNnreRBFit79Cj-23" value="" style="endArrow=classic;html=1;rounded=0;entryX=1;entryY=0.5;entryDx=0;entryDy=0;" edge="1" parent="1" target="Ll7TEgQNnreRBFit79Cj-14">
          <mxGeometry width="50" height="50" relative="1" as="geometry">
            <mxPoint x="470" y="350" as="sourcePoint" />
            <mxPoint x="520" y="300" as="targetPoint" />
            <Array as="points">
              <mxPoint x="550" y="210" />
            </Array>
          </mxGeometry>
        </mxCell>
        <mxCell id="Ll7TEgQNnreRBFit79Cj-24" value="タイムラインを&lt;br&gt;クリック" style="edgeLabel;html=1;align=center;verticalAlign=middle;resizable=0;points=[];" vertex="1" connectable="0" parent="Ll7TEgQNnreRBFit79Cj-23">
          <mxGeometry x="-0.3544" relative="1" as="geometry">
            <mxPoint as="offset" />
          </mxGeometry>
        </mxCell>
        <mxCell id="Ll7TEgQNnreRBFit79Cj-25" value="" style="endArrow=classic;html=1;rounded=0;entryX=0.917;entryY=1.033;entryDx=0;entryDy=0;entryPerimeter=0;" edge="1" parent="1" target="Ll7TEgQNnreRBFit79Cj-14">
          <mxGeometry width="50" height="50" relative="1" as="geometry">
            <mxPoint x="470" y="200" as="sourcePoint" />
            <mxPoint x="520" y="150" as="targetPoint" />
          </mxGeometry>
        </mxCell>
        <mxCell id="Ll7TEgQNnreRBFit79Cj-26" value="タイムラインを&lt;br&gt;クリック" style="edgeLabel;html=1;align=center;verticalAlign=middle;resizable=0;points=[];" vertex="1" connectable="0" parent="Ll7TEgQNnreRBFit79Cj-25">
          <mxGeometry x="-0.4899" relative="1" as="geometry">
            <mxPoint as="offset" />
          </mxGeometry>
        </mxCell>
        <mxCell id="Ll7TEgQNnreRBFit79Cj-28" value="" style="endArrow=classic;html=1;rounded=0;entryX=0;entryY=1;entryDx=0;entryDy=0;" edge="1" parent="1" target="Ll7TEgQNnreRBFit79Cj-14">
          <mxGeometry width="50" height="50" relative="1" as="geometry">
            <mxPoint x="150" y="210" as="sourcePoint" />
            <mxPoint x="200" y="160" as="targetPoint" />
          </mxGeometry>
        </mxCell>
        <mxCell id="Ll7TEgQNnreRBFit79Cj-29" value="ログイン" style="edgeLabel;html=1;align=center;verticalAlign=middle;resizable=0;points=[];" vertex="1" connectable="0" parent="Ll7TEgQNnreRBFit79Cj-28">
          <mxGeometry x="-0.011" y="2" relative="1" as="geometry">
            <mxPoint as="offset" />
          </mxGeometry>
        </mxCell>
        <mxCell id="Ll7TEgQNnreRBFit79Cj-31" value="フォロー&lt;br&gt;フォロー解除" style="endArrow=classic;html=1;rounded=0;exitX=0;exitY=0;exitDx=0;exitDy=0;" edge="1" parent="1" source="Ll7TEgQNnreRBFit79Cj-21">
          <mxGeometry width="50" height="50" relative="1" as="geometry">
            <mxPoint x="360" y="350" as="sourcePoint" />
            <mxPoint x="354" y="400" as="targetPoint" />
            <Array as="points">
              <mxPoint x="260" y="380" />
            </Array>
          </mxGeometry>
        </mxCell>
        <mxCell id="Ll7TEgQNnreRBFit79Cj-34" style="edgeStyle=orthogonalEdgeStyle;rounded=0;orthogonalLoop=1;jettySize=auto;html=1;entryX=1;entryY=0.75;entryDx=0;entryDy=0;" edge="1" parent="1" target="Ll7TEgQNnreRBFit79Cj-14">
          <mxGeometry relative="1" as="geometry">
            <mxPoint x="490" y="70" as="targetPoint" />
            <mxPoint x="600" y="90" as="sourcePoint" />
          </mxGeometry>
        </mxCell>
        <mxCell id="Ll7TEgQNnreRBFit79Cj-35" value="作成後&lt;br&gt;リダイレクト" style="edgeLabel;html=1;align=center;verticalAlign=middle;resizable=0;points=[];" vertex="1" connectable="0" parent="Ll7TEgQNnreRBFit79Cj-34">
          <mxGeometry x="0.0167" y="-1" relative="1" as="geometry">
            <mxPoint as="offset" />
          </mxGeometry>
        </mxCell>
        <mxCell id="Ll7TEgQNnreRBFit79Cj-33" value="投稿新規作成画面" style="rounded=0;whiteSpace=wrap;html=1;" vertex="1" parent="1">
          <mxGeometry x="600" y="40" width="120" height="60" as="geometry" />
        </mxCell>
        <mxCell id="Ll7TEgQNnreRBFit79Cj-37" value="" style="endArrow=classic;html=1;rounded=0;" edge="1" parent="1">
          <mxGeometry width="50" height="50" relative="1" as="geometry">
            <mxPoint x="380" y="100" as="sourcePoint" />
            <mxPoint x="160" y="370" as="targetPoint" />
          </mxGeometry>
        </mxCell>
        <mxCell id="Ll7TEgQNnreRBFit79Cj-39" value="マイアカウントを&lt;br&gt;クリック" style="edgeLabel;html=1;align=center;verticalAlign=middle;resizable=0;points=[];" vertex="1" connectable="0" parent="Ll7TEgQNnreRBFit79Cj-37">
          <mxGeometry x="0.095" y="2" relative="1" as="geometry">
            <mxPoint as="offset" />
          </mxGeometry>
        </mxCell>
        <mxCell id="Ll7TEgQNnreRBFit79Cj-38" value="マイページ" style="rounded=0;whiteSpace=wrap;html=1;" vertex="1" parent="1">
          <mxGeometry x="40" y="370" width="120" height="60" as="geometry" />
        </mxCell>
        <mxCell id="Ll7TEgQNnreRBFit79Cj-42" value="編集を&lt;br&gt;クリック" style="edgeStyle=orthogonalEdgeStyle;rounded=0;orthogonalLoop=1;jettySize=auto;html=1;" edge="1" parent="1" source="Ll7TEgQNnreRBFit79Cj-38" target="Ll7TEgQNnreRBFit79Cj-41">
          <mxGeometry relative="1" as="geometry" />
        </mxCell>
        <mxCell id="Ll7TEgQNnreRBFit79Cj-41" value="マイプロフィール&lt;br&gt;編集画面" style="rounded=0;whiteSpace=wrap;html=1;" vertex="1" parent="1">
          <mxGeometry x="40" y="490" width="120" height="60" as="geometry" />
        </mxCell>
        <mxCell id="Ll7TEgQNnreRBFit79Cj-44" value="" style="endArrow=classic;html=1;rounded=0;exitX=1;exitY=1;exitDx=0;exitDy=0;" edge="1" parent="1" source="Ll7TEgQNnreRBFit79Cj-38" target="Ll7TEgQNnreRBFit79Cj-45">
          <mxGeometry width="50" height="50" relative="1" as="geometry">
            <mxPoint x="190" y="480" as="sourcePoint" />
            <mxPoint x="350" y="480" as="targetPoint" />
          </mxGeometry>
        </mxCell>
        <mxCell id="Ll7TEgQNnreRBFit79Cj-54" value="フィロー一覧をクリック" style="edgeLabel;html=1;align=center;verticalAlign=middle;resizable=0;points=[];" vertex="1" connectable="0" parent="Ll7TEgQNnreRBFit79Cj-44">
          <mxGeometry x="-0.0689" relative="1" as="geometry">
            <mxPoint as="offset" />
          </mxGeometry>
        </mxCell>
        <mxCell id="Ll7TEgQNnreRBFit79Cj-47" style="edgeStyle=orthogonalEdgeStyle;rounded=0;orthogonalLoop=1;jettySize=auto;html=1;exitX=0.5;exitY=0;exitDx=0;exitDy=0;entryX=0.558;entryY=1.033;entryDx=0;entryDy=0;entryPerimeter=0;" edge="1" parent="1" source="Ll7TEgQNnreRBFit79Cj-45" target="Ll7TEgQNnreRBFit79Cj-21">
          <mxGeometry relative="1" as="geometry" />
        </mxCell>
        <mxCell id="Ll7TEgQNnreRBFit79Cj-48" value="アカウントを&lt;br&gt;クリック" style="edgeLabel;html=1;align=center;verticalAlign=middle;resizable=0;points=[];" vertex="1" connectable="0" parent="Ll7TEgQNnreRBFit79Cj-47">
          <mxGeometry x="0.0432" y="1" relative="1" as="geometry">
            <mxPoint x="1" y="1" as="offset" />
          </mxGeometry>
        </mxCell>
        <mxCell id="Ll7TEgQNnreRBFit79Cj-45" value="フォローアカウント&lt;br&gt;一覧" style="rounded=0;whiteSpace=wrap;html=1;" vertex="1" parent="1">
          <mxGeometry x="360" y="480" width="120" height="60" as="geometry" />
        </mxCell>
        <mxCell id="Ll7TEgQNnreRBFit79Cj-49" value="" style="endArrow=classic;html=1;rounded=0;exitX=0.867;exitY=1.05;exitDx=0;exitDy=0;exitPerimeter=0;entryX=0;entryY=0.5;entryDx=0;entryDy=0;" edge="1" parent="1" source="Ll7TEgQNnreRBFit79Cj-38" target="Ll7TEgQNnreRBFit79Cj-50">
          <mxGeometry width="50" height="50" relative="1" as="geometry">
            <mxPoint x="270" y="620" as="sourcePoint" />
            <mxPoint x="360" y="620" as="targetPoint" />
          </mxGeometry>
        </mxCell>
        <mxCell id="Ll7TEgQNnreRBFit79Cj-51" value="お気に入りを&lt;br&gt;クリック" style="edgeLabel;html=1;align=center;verticalAlign=middle;resizable=0;points=[];" vertex="1" connectable="0" parent="Ll7TEgQNnreRBFit79Cj-49">
          <mxGeometry x="0.0265" y="-1" relative="1" as="geometry">
            <mxPoint x="-1" as="offset" />
          </mxGeometry>
        </mxCell>
        <mxCell id="Ll7TEgQNnreRBFit79Cj-50" value="お気に入り&lt;br&gt;一覧画面" style="rounded=0;whiteSpace=wrap;html=1;" vertex="1" parent="1">
          <mxGeometry x="370" y="700" width="120" height="60" as="geometry" />
        </mxCell>
        <mxCell id="Ll7TEgQNnreRBFit79Cj-53" value="お気に入りを&lt;br&gt;解除" style="endArrow=classic;html=1;rounded=0;entryX=1;entryY=0.75;entryDx=0;entryDy=0;exitX=1;exitY=0;exitDx=0;exitDy=0;" edge="1" parent="1" source="Ll7TEgQNnreRBFit79Cj-50" target="Ll7TEgQNnreRBFit79Cj-50">
          <mxGeometry width="50" height="50" relative="1" as="geometry">
            <mxPoint x="480" y="600" as="sourcePoint" />
            <mxPoint x="530" y="550" as="targetPoint" />
            <Array as="points">
              <mxPoint x="570" y="720" />
            </Array>
          </mxGeometry>
        </mxCell>
        <mxCell id="Ll7TEgQNnreRBFit79Cj-55" value="" style="endArrow=classic;html=1;rounded=0;exitX=0.95;exitY=1;exitDx=0;exitDy=0;exitPerimeter=0;" edge="1" parent="1" source="Ll7TEgQNnreRBFit79Cj-38">
          <mxGeometry width="50" height="50" relative="1" as="geometry">
            <mxPoint x="360" y="610" as="sourcePoint" />
            <mxPoint x="360" y="610" as="targetPoint" />
          </mxGeometry>
        </mxCell>
        <mxCell id="Ll7TEgQNnreRBFit79Cj-57" value="フォロワー一覧をクリック" style="edgeLabel;html=1;align=center;verticalAlign=middle;resizable=0;points=[];" vertex="1" connectable="0" parent="Ll7TEgQNnreRBFit79Cj-55">
          <mxGeometry x="-0.0825" y="1" relative="1" as="geometry">
            <mxPoint y="1" as="offset" />
          </mxGeometry>
        </mxCell>
        <mxCell id="Ll7TEgQNnreRBFit79Cj-56" value="フォロワー一覧" style="rounded=0;whiteSpace=wrap;html=1;" vertex="1" parent="1">
          <mxGeometry x="360" y="580" width="120" height="60" as="geometry" />
        </mxCell>
        <mxCell id="Ll7TEgQNnreRBFit79Cj-59" value="アカウントをクリック" style="endArrow=classic;html=1;rounded=0;entryX=1;entryY=0.5;entryDx=0;entryDy=0;exitX=1;exitY=0.5;exitDx=0;exitDy=0;" edge="1" parent="1" source="Ll7TEgQNnreRBFit79Cj-56" target="Ll7TEgQNnreRBFit79Cj-21">
          <mxGeometry width="50" height="50" relative="1" as="geometry">
            <mxPoint x="630" y="560" as="sourcePoint" />
            <mxPoint x="530" y="610" as="targetPoint" />
            <Array as="points">
              <mxPoint x="560" y="490" />
            </Array>
          </mxGeometry>
        </mxCell>
        <mxCell id="Ll7TEgQNnreRBFit79Cj-61" value="" style="endArrow=classic;html=1;rounded=0;exitX=0;exitY=0.5;exitDx=0;exitDy=0;entryX=0;entryY=0;entryDx=0;entryDy=0;" edge="1" parent="1" source="Ll7TEgQNnreRBFit79Cj-38" target="Ll7TEgQNnreRBFit79Cj-63">
          <mxGeometry width="50" height="50" relative="1" as="geometry">
            <mxPoint x="40" y="400" as="sourcePoint" />
            <mxPoint x="10" y="590" as="targetPoint" />
            <Array as="points">
              <mxPoint x="-40" y="510" />
            </Array>
          </mxGeometry>
        </mxCell>
        <mxCell id="Ll7TEgQNnreRBFit79Cj-70" value="投稿詳細を&lt;br&gt;クリック" style="edgeLabel;html=1;align=center;verticalAlign=middle;resizable=0;points=[];" vertex="1" connectable="0" parent="Ll7TEgQNnreRBFit79Cj-61">
          <mxGeometry x="-0.4816" y="4" relative="1" as="geometry">
            <mxPoint as="offset" />
          </mxGeometry>
        </mxCell>
        <mxCell id="Ll7TEgQNnreRBFit79Cj-65" value="編集をクリック" style="edgeStyle=orthogonalEdgeStyle;rounded=0;orthogonalLoop=1;jettySize=auto;html=1;exitX=0.5;exitY=1;exitDx=0;exitDy=0;" edge="1" parent="1" source="Ll7TEgQNnreRBFit79Cj-63">
          <mxGeometry relative="1" as="geometry">
            <mxPoint x="100" y="720" as="targetPoint" />
          </mxGeometry>
        </mxCell>
        <mxCell id="Ll7TEgQNnreRBFit79Cj-63" value="投稿詳細画面" style="rounded=0;whiteSpace=wrap;html=1;" vertex="1" parent="1">
          <mxGeometry x="40" y="600" width="120" height="60" as="geometry" />
        </mxCell>
        <mxCell id="Ll7TEgQNnreRBFit79Cj-66" value="投稿編集画面" style="rounded=0;whiteSpace=wrap;html=1;" vertex="1" parent="1">
          <mxGeometry x="40" y="720" width="120" height="60" as="geometry" />
        </mxCell>
        <mxCell id="Ll7TEgQNnreRBFit79Cj-67" value="投稿削除をクリック" style="endArrow=classic;html=1;rounded=0;exitX=-0.017;exitY=0.867;exitDx=0;exitDy=0;entryX=0;entryY=0.5;entryDx=0;entryDy=0;exitPerimeter=0;" edge="1" parent="1" source="Ll7TEgQNnreRBFit79Cj-63" target="Ll7TEgQNnreRBFit79Cj-41">
          <mxGeometry width="50" height="50" relative="1" as="geometry">
            <mxPoint x="-40" y="710" as="sourcePoint" />
            <mxPoint x="40" y="860" as="targetPoint" />
            <Array as="points">
              <mxPoint x="-30" y="590" />
            </Array>
          </mxGeometry>
        </mxCell>
        <mxCell id="Ll7TEgQNnreRBFit79Cj-71" value="全てのページから&lt;br&gt;ログアウトが可能" style="whiteSpace=wrap;html=1;" vertex="1" parent="1">
          <mxGeometry x="640" y="260" width="120" height="60" as="geometry" />
        </mxCell>
      </root>
    </mxGraphModel>
  </diagram>
</mxfile>
